<svg id="visual" viewBox="0 0 900 600" width="900" height="600" xmlns="http://www.w3.org/2000/svg" xmlns:xlink="http://www.w3.org/1999/xlink" version="1.1"><rect x="0" y="0" width="900" height="600" fill="#ffffff"></rect><defs><linearGradient id="grad1_0" x1="33.3%" y1="0%" x2="100%" y2="100%"><stop offset="20%" stop-color="#ffffff" stop-opacity="1"></stop><stop offset="80%" stop-color="#ffffff" stop-opacity="1"></stop></linearGradient></defs><defs><linearGradient id="grad2_0" x1="0%" y1="0%" x2="66.7%" y2="100%"><stop offset="20%" stop-color="#ffffff" stop-opacity="1"></stop><stop offset="80%" stop-color="#ffffff" stop-opacity="1"></stop></linearGradient></defs><g transform="translate(900, 0)"><path d="M0 189.3C-26.2 187.5 -52.4 185.6 -71.9 173.7C-91.5 161.8 -104.5 139.8 -122.3 122.3C-140.2 104.9 -162.9 92.1 -174.9 72.4C-186.9 52.8 -188.1 26.4 -189.3 0L0 0Z" fill="#001220"></path></g><g transform="translate(0, 600)"><path d="M0 -189.3C24.7 -181.1 49.4 -172.8 65.4 -158C81.4 -143.1 88.7 -121.7 108.2 -108.2C127.7 -94.7 159.3 -89.1 174.9 -72.4C190.4 -55.7 189.9 -27.9 189.3 0L0 0Z" fill="#001220"></path></g></svg>
